<svg width="800" height="800" viewBox="0 0 800 800" fill="none" xmlns="http://www.w3.org/2000/svg">
<g clip-path="url(#clip0_1943_2)">
<rect width="800" height="800" fill="white"/>
<g filter="url(#filter0_d_1943_2)">
<path d="M587.178 108.8L484.504 288.832H315.725L213.05 108.8L28.8 428.073L160.563 630.728L245.49 692.494L80.9296 427.864L213.526 192.813L294.538 324.168L400.114 342.408L505.69 324.168L586.701 192.813L719.298 427.864L554.739 692.494L639.664 630.728L771.429 428.073L587.178 108.8Z" fill="black"/>
</g>
<g filter="url(#filter1_d_1943_2)">
<path d="M273.6 108.8L295.179 151.798L377.402 152.064L377.419 630.336L422.766 692.736L422.784 152.064L505.006 151.798L528.186 108.8H273.6Z" fill="black"/>
</g>
</g>
<defs>
<filter id="filter0_d_1943_2" x="18.8" y="106.8" width="762.629" height="603.694" filterUnits="userSpaceOnUse" color-interpolation-filters="sRGB">
<feFlood flood-opacity="0" result="BackgroundImageFix"/>
<feColorMatrix in="SourceAlpha" type="matrix" values="0 0 0 0 0 0 0 0 0 0 0 0 0 0 0 0 0 0 127 0" result="hardAlpha"/>
<feOffset dy="8"/>
<feGaussianBlur stdDeviation="5"/>
<feComposite in2="hardAlpha" operator="out"/>
<feColorMatrix type="matrix" values="0 0 0 0 0.901961 0 0 0 0 0.0156863 0 0 0 0 0.0156863 0 0 0 1 0"/>
<feBlend mode="normal" in2="BackgroundImageFix" result="effect1_dropShadow_1943_2"/>
<feBlend mode="normal" in="SourceGraphic" in2="effect1_dropShadow_1943_2" result="shape"/>
</filter>
<filter id="filter1_d_1943_2" x="263.6" y="106.8" width="274.586" height="603.936" filterUnits="userSpaceOnUse" color-interpolation-filters="sRGB">
<feFlood flood-opacity="0" result="BackgroundImageFix"/>
<feColorMatrix in="SourceAlpha" type="matrix" values="0 0 0 0 0 0 0 0 0 0 0 0 0 0 0 0 0 0 127 0" result="hardAlpha"/>
<feOffset dy="8"/>
<feGaussianBlur stdDeviation="5"/>
<feComposite in2="hardAlpha" operator="out"/>
<feColorMatrix type="matrix" values="0 0 0 0 0.901961 0 0 0 0 0.0156863 0 0 0 0 0.0156863 0 0 0 1 0"/>
<feBlend mode="normal" in2="BackgroundImageFix" result="effect1_dropShadow_1943_2"/>
<feBlend mode="normal" in="SourceGraphic" in2="effect1_dropShadow_1943_2" result="shape"/>
</filter>
<clipPath id="clip0_1943_2">
<rect width="800" height="800" fill="white"/>
</clipPath>
</defs>
</svg>
